<?xml version="1.0" encoding="utf-8"?>
<!-- Generator: Adobe Illustrator 16.0.0, SVG Export Plug-In . SVG Version: 6.00 Build 0)  -->
<!DOCTYPE svg PUBLIC "-//W3C//DTD SVG 1.1//EN" "http://www.w3.org/Graphics/SVG/1.1/DTD/svg11.dtd">
<svg version="1.1" id="Layer_1" xmlns="http://www.w3.org/2000/svg" xmlns:xlink="http://www.w3.org/1999/xlink" x="0px" y="0px"
	 width="22.014px" height="23.068px" viewBox="0 16.599 22.014 23.068" enable-background="new 0 16.599 22.014 23.068"
	 xml:space="preserve">
<g>
	<g>
		<path id="SVGID_1_" fill="#FFFFFF" d="M15.721,28.133l5.301-5.302c0.647-0.649,0.647-1.708,0-2.355l-2.359-2.357
			c-0.646-0.647-1.709-0.647-2.355,0l-5.301,5.302l-5.302-5.302c-0.647-0.647-1.708-0.647-2.355,0l-2.356,2.357
			c-0.647,0.647-0.647,1.708,0,2.355l5.301,5.304l-5.301,5.302c-0.647,0.647-0.647,1.708,0,2.356l2.356,2.354
			c0.647,0.647,1.708,0.647,2.355,0l5.301-5.299l5.302,5.299c0.646,0.647,1.707,0.647,2.358,0l2.355-2.354
			c0.647-0.648,0.647-1.709,0-2.356L15.721,28.133z"/>
	</g>
	<g>
		<defs>
			<path id="SVGID_2_" d="M15.721,28.133l5.301-5.302c0.647-0.649,0.647-1.708,0-2.355l-2.359-2.357
				c-0.646-0.647-1.709-0.647-2.355,0l-5.301,5.302l-5.302-5.302c-0.647-0.647-1.708-0.647-2.355,0l-2.356,2.357
				c-0.647,0.647-0.647,1.708,0,2.355l5.301,5.304l-5.301,5.302c-0.647,0.647-0.647,1.708,0,2.356l2.356,2.354
				c0.647,0.647,1.708,0.647,2.355,0l5.301-5.299l5.302,5.299c0.646,0.647,1.707,0.647,2.358,0l2.355-2.354
				c0.647-0.648,0.647-1.709,0-2.356L15.721,28.133z"/>
		</defs>
		<use xlink:href="#SVGID_2_"  overflow="visible" fill="#FFFFFF"/>
		<clipPath id="SVGID_3_">
			<use xlink:href="#SVGID_2_"  overflow="visible"/>
		</clipPath>
		<rect x="-2.489" y="14.638" clip-path="url(#SVGID_3_)" fill="#FFFFFF" width="26.992" height="26.99"/>
	</g>
</g>
</svg>
