<?xml version="1.0" encoding="utf-8"?>
<!-- Generator: Adobe Illustrator 16.0.0, SVG Export Plug-In . SVG Version: 6.00 Build 0)  -->
<!DOCTYPE svg PUBLIC "-//W3C//DTD SVG 1.1//EN" "http://www.w3.org/Graphics/SVG/1.1/DTD/svg11.dtd">
<svg version="1.1" id="Layer_1" xmlns="http://www.w3.org/2000/svg" xmlns:xlink="http://www.w3.org/1999/xlink" x="0px" y="0px"
	 width="32.667px" height="29.333px" viewBox="0 0 32.667 29.333" enable-background="new 0 0 32.667 29.333" xml:space="preserve">
<g>
	<g>
		<path fill="#0093CF" d="M30.519,1.108c-0.129-0.113-0.313-0.14-0.469-0.067L1.917,14.112c-0.151,0.071-0.25,0.222-0.251,0.389
			c-0.002,0.167,0.093,0.32,0.242,0.394l7.961,3.907c0.146,0.072,0.32,0.055,0.451-0.042l7.741-5.785l-6.077,6.25
			c-0.087,0.089-0.131,0.211-0.122,0.335l0.605,7.879c0.013,0.175,0.13,0.324,0.296,0.379c0.045,0.015,0.09,0.021,0.136,0.021
			c0.124,0,0.244-0.053,0.328-0.15l4.226-4.897l5.224,2.497c0.113,0.054,0.245,0.056,0.36,0.006c0.115-0.05,0.203-0.148,0.24-0.268
			l7.368-23.463C30.697,1.4,30.647,1.221,30.519,1.108L30.519,1.108z M30.519,1.108"/>
	</g>
</g>
<g>
	<defs>
		<path id="SVGID_1_" d="M-735-28h515c5.523,0,10,4.478,10,10v43c0,5.522-4.477,10-10,10h-515c-5.523,0-10-4.478-10-10v-43
			C-745-23.522-740.523-28-735-28z"/>
	</defs>
	<clipPath id="SVGID_2_">
		<use xlink:href="#SVGID_1_"  overflow="visible"/>
	</clipPath>
	<g clip-path="url(#SVGID_2_)">
		<defs>
			<rect id="SVGID_3_" x="-2334" y="-498" width="4710" height="1080"/>
		</defs>
		<clipPath id="SVGID_4_">
			<use xlink:href="#SVGID_3_"  overflow="visible"/>
		</clipPath>
		<rect x="-750" y="-33" clip-path="url(#SVGID_4_)" fill="#0A93D0" width="545" height="73"/>
	</g>
</g>
<g>
	<defs>
		<path id="SVGID_5_" d="M-735-28h515c5.523,0,10,4.478,10,10v43c0,5.522-4.477,10-10,10h-515c-5.523,0-10-4.478-10-10v-43
			C-745-23.522-740.523-28-735-28z"/>
	</defs>
	<clipPath id="SVGID_6_">
		<use xlink:href="#SVGID_5_"  overflow="visible"/>
	</clipPath>
	<g clip-path="url(#SVGID_6_)">
		<defs>
			<rect id="SVGID_7_" x="-2334" y="-498" width="4710" height="1080"/>
		</defs>
		<clipPath id="SVGID_8_">
			<use xlink:href="#SVGID_7_"  overflow="visible"/>
		</clipPath>
		<rect x="-750" y="-33" clip-path="url(#SVGID_8_)" fill="#0A93D0" width="545" height="73"/>
	</g>
</g>
<g>
	<defs>
		<path id="SVGID_9_" d="M-735-28h515c5.523,0,10,4.478,10,10v43c0,5.522-4.477,10-10,10h-515c-5.523,0-10-4.478-10-10v-43
			C-745-23.522-740.523-28-735-28z"/>
	</defs>
	<clipPath id="SVGID_10_">
		<use xlink:href="#SVGID_9_"  overflow="visible"/>
	</clipPath>
	<g clip-path="url(#SVGID_10_)">
		<defs>
			<rect id="SVGID_11_" x="-2334" y="-498" width="4710" height="1080"/>
		</defs>
		<clipPath id="SVGID_12_">
			<use xlink:href="#SVGID_11_"  overflow="visible"/>
		</clipPath>
		<rect x="-750" y="-33" clip-path="url(#SVGID_12_)" fill="#0A93D0" width="545" height="73"/>
	</g>
</g>
<g>
	<defs>
		<path id="SVGID_13_" d="M-735-28h515c5.523,0,10,4.478,10,10v43c0,5.522-4.477,10-10,10h-515c-5.523,0-10-4.478-10-10v-43
			C-745-23.522-740.523-28-735-28z"/>
	</defs>
	<clipPath id="SVGID_14_">
		<use xlink:href="#SVGID_13_"  overflow="visible"/>
	</clipPath>
	<g clip-path="url(#SVGID_14_)">
		<defs>
			<rect id="SVGID_15_" x="-2334" y="-498" width="4710" height="1080"/>
		</defs>
		<clipPath id="SVGID_16_">
			<use xlink:href="#SVGID_15_"  overflow="visible"/>
		</clipPath>
		<rect x="-750" y="-33" clip-path="url(#SVGID_16_)" fill="#0A93D0" width="545" height="73"/>
	</g>
</g>
</svg>
