<svg xmlns="http://www.w3.org/2000/svg" xmlns:xlink="http://www.w3.org/1999/xlink" width="32.7" height="29.3" viewBox="0 0 32.667 29.333"><path fill="#0093CF" d="M30.5 1H30L2 14c-.2.2-.3.3-.3.5s0 .3.2.4l8 3.8h.3L18 13l-6 6.2v.4l.5 7.8c0 .2 0 .4.3.4h.4l4.3-5 5.2 2.5h.3c.2 0 .2-.2.3-.3l7.3-23.4V1zm0 0"/><defs><path id="a" d="M-735-28h515c5.5 0 10 4.5 10 10v43c0 5.5-4.5 10-10 10h-515c-5.5 0-10-4.5-10-10v-43c0-5.5 4.5-10 10-10z"/></defs><clipPath id="b"><use xlink:href="#a" overflow="visible"/></clipPath><g clip-path="url(#b)"><defs><path id="c" d="M-2334-498h4710V582h-4710z"/></defs><clipPath id="d"><use xlink:href="#c" overflow="visible"/></clipPath><path clip-path="url(#d)" fill="#0A93D0" d="M-750-33h545v73h-545z"/></g><defs><path id="e" d="M-735-28h515c5.5 0 10 4.5 10 10v43c0 5.5-4.5 10-10 10h-515c-5.5 0-10-4.5-10-10v-43c0-5.5 4.5-10 10-10z"/></defs><clipPath id="f"><use xlink:href="#e" overflow="visible"/></clipPath><g clip-path="url(#f)"><defs><path id="g" d="M-2334-498h4710V582h-4710z"/></defs><clipPath id="h"><use xlink:href="#g" overflow="visible"/></clipPath><path clip-path="url(#h)" fill="#0A93D0" d="M-750-33h545v73h-545z"/></g><g><defs><path id="i" d="M-735-28h515c5.5 0 10 4.5 10 10v43c0 5.5-4.5 10-10 10h-515c-5.5 0-10-4.5-10-10v-43c0-5.5 4.5-10 10-10z"/></defs><clipPath id="j"><use xlink:href="#i" overflow="visible"/></clipPath><g clip-path="url(#j)"><defs><path id="k" d="M-2334-498h4710V582h-4710z"/></defs><clipPath id="l"><use xlink:href="#k" overflow="visible"/></clipPath><path clip-path="url(#l)" fill="#0A93D0" d="M-750-33h545v73h-545z"/></g></g><g><defs><path id="m" d="M-735-28h515c5.5 0 10 4.5 10 10v43c0 5.5-4.5 10-10 10h-515c-5.5 0-10-4.5-10-10v-43c0-5.5 4.5-10 10-10z"/></defs><clipPath id="n"><use xlink:href="#m" overflow="visible"/></clipPath><g clip-path="url(#n)"><defs><path id="o" d="M-2334-498h4710V582h-4710z"/></defs><clipPath id="p"><use xlink:href="#o" overflow="visible"/></clipPath><path clip-path="url(#p)" fill="#0A93D0" d="M-750-33h545v73h-545z"/></g></g></svg>